<svg width="134" height="110" viewBox="0 0 134 110" fill="none" xmlns="http://www.w3.org/2000/svg">
<path d="M8.75 24.7409C16.4936 21.5054 27.5966 18.0198 38.3922 16.9309C50.0324 15.7568 59.906 17.4829 65.625 23.5084V108.785C57.4447 104.147 47.0807 103.51 37.5141 104.475C27.1856 105.517 16.7799 108.51 8.75 111.571V24.7409ZM74.375 23.5084C80.094 17.4829 89.9676 15.7568 101.608 16.9309C112.403 18.0198 123.506 21.5054 131.25 24.7409V111.571C123.22 108.51 112.814 105.517 102.486 104.475C92.9193 103.51 82.5553 104.147 74.375 108.785V23.5084ZM70 15.6015C61.382 8.19375 48.8848 7.0782 37.5141 8.2251C24.2657 9.5614 10.8901 14.1077 2.56461 17.892C1.00276 18.602 0 20.1593 0 21.8749V118.125C0 119.612 0.755791 120.998 2.00644 121.803C3.25708 122.609 4.83122 122.723 6.18539 122.108C13.9015 118.6 26.3385 114.397 38.3922 113.181C50.712 111.938 61.0528 113.944 66.5837 120.858C67.414 121.896 68.6709 122.5 70 122.5C71.3291 122.5 72.586 121.896 73.4163 120.858C78.9472 113.944 89.288 111.938 101.608 113.181C113.661 114.397 126.098 118.6 133.815 122.108C135.169 122.723 136.743 122.609 137.994 121.803C139.244 120.998 140 119.612 140 118.125V21.8749C140 20.1593 138.997 18.602 137.435 17.892C129.11 14.1077 115.734 9.5614 102.486 8.2251C91.1152 7.0782 78.618 8.19375 70 15.6015Z" fill="#2C7BE5" fill-opacity="0.5"/>
</svg>
