<svg width="263" height="128" viewBox="0 0 263 128" fill="none" xmlns="http://www.w3.org/2000/svg">
<g filter="url(#filter0_d_184_11316)">
<rect width="255" height="120" fill="#D7AF82"/>
<path d="M102.729 75.9404V48.2256H129.213V75.9111H125.17V74.7686H106.771V75.9404H102.729ZM123.852 53.3525V55.7549C122.826 57.1416 121.469 58.3721 119.779 59.4463C121.361 59.876 123.158 60.2129 125.17 60.457V51.7705H116.264C115.902 52.3076 115.517 52.835 115.106 53.3525H123.852ZM112.221 51.7705H106.771V56.8535C109.223 55.2422 111.039 53.5479 112.221 51.7705ZM116.132 58.1279C117.499 57.4932 118.578 56.7803 119.369 55.9893H113.07C113.861 56.7998 114.882 57.5127 116.132 58.1279ZM108.705 59.124C108.197 58.5674 107.553 57.9424 106.771 57.249V60.75C109.018 60.3691 111 59.9199 112.719 59.4023C111.986 58.8555 111.327 58.2695 110.741 57.6445C110.097 58.1523 109.418 58.6455 108.705 59.124ZM108.822 65.8916C113.979 66.5752 118.832 67.2979 123.383 68.0596L122.562 71.2236H125.17V60.8086C124.74 61.5215 124.223 62.4053 123.617 63.46C120.717 62.9717 118.207 62.2637 116.088 61.3359C115.004 61.7754 113.837 62.1758 112.587 62.5371C115.829 62.9473 118.998 63.4111 122.094 63.9287L121.508 66.7119C118.285 66.1455 114.672 65.5889 110.668 65.042L111.122 62.9326C110.175 63.167 109.184 63.3818 108.148 63.5771C107.787 62.7568 107.328 61.8975 106.771 60.999V71.2236H122.416C118.441 70.4131 113.637 69.6611 108.002 68.9678L108.822 65.8916ZM135.137 51.6533H142.754V47.083H147.002V51.6533H155.073C154.243 51.0381 153.379 50.4229 152.48 49.8076L155 47.1123C157.441 48.6943 159.688 50.2861 161.738 51.8877L159.014 54.8174C158.418 54.2998 157.793 53.7773 157.139 53.25L156.626 60.5596H160.918C160.781 64.6025 160.63 67.3467 160.464 68.792C160.298 70.2275 159.761 71.3604 158.853 72.1904C157.954 73.0303 156.641 73.4502 154.912 73.4502C153.076 73.4502 151.709 73.4209 150.811 73.3623C150.654 72.1709 150.361 70.7744 149.932 69.1729C151.201 69.3486 152.48 69.4365 153.77 69.4365C154.541 69.4365 155.137 69.2705 155.557 68.9385C155.986 68.6064 156.245 68.1377 156.333 67.5322C156.431 66.9268 156.504 65.8135 156.553 64.1924H147.002V75.8818H142.754V64.1924H133.086V60.5596H142.754V55.2275H135.137V51.6533ZM152.832 55.2275H147.002V60.5596H152.451L152.832 55.2275ZM164.82 53.7334H171.603C171.212 53.1865 170.865 52.7373 170.562 52.3857L172.862 51.5361H166.285V49.0166H176.803L176.041 47.2881L181.021 46.8486C181.285 47.4346 181.568 48.1572 181.871 49.0166H191.568V51.5361H184.61L187.262 52.4736L186.163 53.7334H193.238V56.3701H164.82V53.7334ZM176.085 53.7334H181.783C182.389 52.835 182.862 52.1025 183.204 51.5361H174.4C175.016 52.3174 175.577 53.0498 176.085 53.7334ZM167.721 67.4736V57.6885H190.25V67.4736H180.128C181.046 68.1963 181.773 68.8115 182.311 69.3193L179.557 71.8096C178.775 70.8721 177.73 69.8076 176.422 68.6162L177.755 67.4736H167.721ZM186.471 60.0908H171.5V61.5264H186.471V60.0908ZM186.471 65.0713V63.6357H171.5V65.0713H186.471ZM166.842 67.9717L170.328 69.3193C169.527 71.3506 168.639 73.2354 167.662 74.9736L164.41 73.3623C165.465 71.4482 166.275 69.6514 166.842 67.9717ZM183.658 68.5869C184.576 69.1143 185.797 69.6807 187.32 70.2861C186.793 72.5615 186.114 73.9873 185.284 74.5635C184.454 75.1494 183.326 75.4424 181.9 75.4424H175.924C172.955 75.4424 171.471 74.251 171.471 71.8682V68.0889H175.338V70.8135C175.338 71.751 175.865 72.2197 176.92 72.2197H180.641C181.695 72.2197 182.423 72.0244 182.823 71.6338C183.224 71.2334 183.502 70.2178 183.658 68.5869ZM190.66 68.0889C191.949 69.7295 192.965 71.292 193.707 72.7764L190.455 74.71C189.479 72.874 188.473 71.2432 187.438 69.8174L190.66 68.0889ZM199.309 66.3018V48.2549H221.721V66.0674H217.502V51.9463H203.527V66.3018H199.309ZM220.812 66.4775C222.121 67.0635 223.566 67.5713 225.148 68.001C225.021 69.1436 224.855 70.252 224.65 71.3262C224.445 72.4004 224.187 73.1865 223.874 73.6846C223.571 74.1924 223.049 74.5977 222.307 74.9004C221.564 75.2031 220.637 75.3545 219.523 75.3545H214.426C211.711 75.3545 210.354 73.9678 210.354 71.1943V66.126C208.518 70.2861 204.572 73.6162 198.518 76.1162C197.58 74.5537 196.682 73.2256 195.822 72.1318C200.783 70.3838 204.113 68.2451 205.812 65.7158C207.521 63.1865 208.312 59.2412 208.186 53.8799H212.375C212.404 57.1416 212.136 59.9932 211.569 62.4346H214.572V70.3154C214.572 71.1943 214.963 71.6338 215.744 71.6338H218.82C219.406 71.6338 219.87 71.3945 220.212 70.916C220.554 70.4375 220.754 68.958 220.812 66.4775Z" fill="white"/>
<path d="M58 40.5721C54.9221 37.9265 50.4588 37.5281 46.3979 37.9377C41.6663 38.4149 36.8893 40.0386 33.9159 41.3901C33.3581 41.6437 33 42.1999 33 42.8126V77.1876C33 77.7189 33.2699 78.2137 33.7166 78.5013C34.1632 78.7889 34.7254 78.8299 35.2091 78.6101C37.9648 77.3574 42.4066 75.8561 46.7115 75.4219C51.1114 74.9781 54.8046 75.6945 56.7799 78.1637C57.0764 78.5343 57.5253 78.7501 58 78.7501C58.4747 78.7501 58.9236 78.5343 59.2201 78.1637C61.1954 75.6945 64.8886 74.9781 69.2885 75.4219C73.5934 75.8561 78.0352 77.3574 80.7909 78.6101C81.2746 78.8299 81.8368 78.7889 82.2834 78.5013C82.7301 78.2137 83 77.7189 83 77.1876V42.8126C83 42.1999 82.6419 41.6437 82.0841 41.3901C79.1107 40.0386 74.3337 38.4149 69.6021 37.9377C65.5412 37.5281 61.0779 37.9265 58 40.5721Z" fill="white"/>
</g>
<defs>
<filter id="filter0_d_184_11316" x="0" y="0" width="263" height="128" filterUnits="userSpaceOnUse" color-interpolation-filters="sRGB">
<feFlood flood-opacity="0" result="BackgroundImageFix"/>
<feColorMatrix in="SourceAlpha" type="matrix" values="0 0 0 0 0 0 0 0 0 0 0 0 0 0 0 0 0 0 127 0" result="hardAlpha"/>
<feOffset dx="4" dy="4"/>
<feGaussianBlur stdDeviation="2"/>
<feComposite in2="hardAlpha" operator="out"/>
<feColorMatrix type="matrix" values="0 0 0 0 0 0 0 0 0 0 0 0 0 0 0 0 0 0 0.1 0"/>
<feBlend mode="normal" in2="BackgroundImageFix" result="effect1_dropShadow_184_11316"/>
<feBlend mode="normal" in="SourceGraphic" in2="effect1_dropShadow_184_11316" result="shape"/>
</filter>
</defs>
</svg>
