<svg width="263" height="128" viewBox="0 0 263 128" fill="none" xmlns="http://www.w3.org/2000/svg">
<g filter="url(#filter0_d_184_11311)">
<rect width="255" height="120" fill="white"/>
<path d="M102.611 48.958C112.182 48.9971 120.863 48.6162 128.656 47.8154L129.242 51.0381C125.316 51.4092 121.21 51.7119 116.923 51.9463C114.892 53.1768 112.738 54.3486 110.463 55.4619L120.146 55.0225C121.601 54.2021 123.09 53.333 124.613 52.415L127.367 55.1689C121.898 58.1963 116.078 60.8721 109.906 63.1963C114.115 63.0107 118.354 62.7666 122.621 62.4639C121.869 61.7217 121.156 61.0479 120.482 60.4424L123.207 58.2451C124.711 59.5537 127.094 61.8486 130.355 65.1299L127.572 67.6787C126.879 66.9072 126.21 66.1797 125.565 65.4961L118.49 65.7744V72.6592C118.49 73.6455 118.202 74.3975 117.626 74.915C117.05 75.4326 116.171 75.7109 114.989 75.75C113.808 75.7988 112.23 75.8232 110.258 75.8232C110.082 74.3975 109.828 73.0693 109.496 71.8389C110.453 71.917 111.474 71.9561 112.558 71.9561C113.349 71.9561 113.871 71.8682 114.125 71.6924C114.379 71.5166 114.506 71.1846 114.506 70.6963V65.9648C110.131 66.1895 106.781 66.4385 104.457 66.7119L103.432 63.0791C106.732 61.8291 110.302 60.2227 114.14 58.2598C110.263 58.4941 107.27 58.7627 105.16 59.0654L104.076 55.4912C106.205 54.7002 108.422 53.6211 110.727 52.2539L103.256 52.4736C103.119 51.3604 102.904 50.1885 102.611 48.958ZM123.207 66.5947C125.375 68.0791 127.807 69.8857 130.502 72.0146L127.807 74.8271C125.717 73.0303 123.363 71.1455 120.746 69.1729L123.207 66.5947ZM108.354 66.8877L111.312 69.4951C109.105 71.5654 106.693 73.46 104.076 75.1787C103.178 74.0264 102.289 72.9814 101.41 72.0439C103.93 70.6182 106.244 68.8994 108.354 66.8877ZM158.604 66.917C159.775 67.5029 160.947 67.9912 162.119 68.3818C161.855 71.3701 161.392 73.2842 160.728 74.124C160.073 74.9639 159.033 75.3838 157.607 75.3838H155.879C153.633 75.3838 152.5 74.1436 152.48 71.6631V62.3174L150.107 62.4932C150 66.7803 149.346 69.9053 148.145 71.8682C146.943 73.8213 145.488 75.2275 143.779 76.0869C142.959 75.1592 141.992 74.1387 140.879 73.0254C138.262 73.2891 135.801 73.5967 133.496 73.9482L133.174 70.0518C135.107 69.915 138.438 69.5635 143.164 68.9971C143.115 69.7295 143.086 70.5156 143.076 71.3555C145.205 69.9395 146.313 67.1074 146.401 62.8594C145.308 62.9863 144.434 63.1182 143.779 63.2549L142.725 59.6807C144.268 58.7041 145.938 56.6338 147.734 53.4697H142.783V50.1299H149.272C148.95 49.3486 148.584 48.5283 148.174 47.6689L152.539 46.8779C153.066 47.9424 153.569 49.0264 154.048 50.1299H161.416V53.4697H152.041C150.762 55.4619 149.287 57.4248 147.617 59.3584C150.068 59.2705 152.773 59.1387 155.732 58.9629C155.068 57.957 154.365 56.9365 153.623 55.9014L156.553 54.2314C158.623 56.9658 160.4 59.5146 161.885 61.8779L158.691 63.8115C158.359 63.2158 158.013 62.6152 157.651 62.0098L156.23 62.083V70.5205C156.23 71.2822 156.484 71.6631 156.992 71.6631H157.256C157.715 71.6631 158.018 71.4238 158.164 70.9453C158.311 70.4668 158.457 69.124 158.604 66.917ZM138.389 64.1338L142.725 63.6357C142.568 64.8467 142.5 65.96 142.52 66.9756C139.355 67.1318 136.689 67.4053 134.521 67.7959L133.613 64.5439C134.736 63.4209 136.104 61.6533 137.715 59.2412C136.191 59.3486 134.932 59.4756 133.936 59.6221L132.881 56.3115C134.736 53.7725 136.416 50.6279 137.92 46.8779L141.758 48.4014C140.332 51.0771 138.789 53.5967 137.129 55.96C137.939 55.9502 138.862 55.916 139.897 55.8574L141.23 53.6455L144.277 55.2861C142.246 58.4893 140.283 61.4385 138.389 64.1338ZM164.82 53.7334H171.603C171.212 53.1865 170.865 52.7373 170.562 52.3857L172.862 51.5361H166.285V49.0166H176.803L176.041 47.2881L181.021 46.8486C181.285 47.4346 181.568 48.1572 181.871 49.0166H191.568V51.5361H184.61L187.262 52.4736L186.163 53.7334H193.238V56.3701H164.82V53.7334ZM176.085 53.7334H181.783C182.389 52.835 182.862 52.1025 183.204 51.5361H174.4C175.016 52.3174 175.577 53.0498 176.085 53.7334ZM167.721 67.4736V57.6885H190.25V67.4736H180.128C181.046 68.1963 181.773 68.8115 182.311 69.3193L179.557 71.8096C178.775 70.8721 177.73 69.8076 176.422 68.6162L177.755 67.4736H167.721ZM186.471 60.0908H171.5V61.5264H186.471V60.0908ZM186.471 65.0713V63.6357H171.5V65.0713H186.471ZM166.842 67.9717L170.328 69.3193C169.527 71.3506 168.639 73.2354 167.662 74.9736L164.41 73.3623C165.465 71.4482 166.275 69.6514 166.842 67.9717ZM183.658 68.5869C184.576 69.1143 185.797 69.6807 187.32 70.2861C186.793 72.5615 186.114 73.9873 185.284 74.5635C184.454 75.1494 183.326 75.4424 181.9 75.4424H175.924C172.955 75.4424 171.471 74.251 171.471 71.8682V68.0889H175.338V70.8135C175.338 71.751 175.865 72.2197 176.92 72.2197H180.641C181.695 72.2197 182.423 72.0244 182.823 71.6338C183.224 71.2334 183.502 70.2178 183.658 68.5869ZM190.66 68.0889C191.949 69.7295 192.965 71.292 193.707 72.7764L190.455 74.71C189.479 72.874 188.473 71.2432 187.438 69.8174L190.66 68.0889ZM199.309 66.3018V48.2549H221.721V66.0674H217.502V51.9463H203.527V66.3018H199.309ZM220.812 66.4775C222.121 67.0635 223.566 67.5713 225.148 68.001C225.021 69.1436 224.855 70.252 224.65 71.3262C224.445 72.4004 224.187 73.1865 223.874 73.6846C223.571 74.1924 223.049 74.5977 222.307 74.9004C221.564 75.2031 220.637 75.3545 219.523 75.3545H214.426C211.711 75.3545 210.354 73.9678 210.354 71.1943V66.126C208.518 70.2861 204.572 73.6162 198.518 76.1162C197.58 74.5537 196.682 73.2256 195.822 72.1318C200.783 70.3838 204.113 68.2451 205.812 65.7158C207.521 63.1865 208.312 59.2412 208.186 53.8799H212.375C212.404 57.1416 212.136 59.9932 211.569 62.4346H214.572V70.3154C214.572 71.1943 214.963 71.6338 215.744 71.6338H218.82C219.406 71.6338 219.87 71.3945 220.212 70.916C220.554 70.4375 220.754 68.958 220.812 66.4775Z" fill="#D7AF82"/>
<path d="M58.0001 49.8569C52.3983 49.8569 47.8571 54.3981 47.8571 59.9999C47.8571 65.6017 52.3983 70.1429 58.0001 70.1429C63.6019 70.1429 68.1431 65.6017 68.1431 59.9999C68.1431 54.3981 63.6019 49.8569 58.0001 49.8569ZM50.9821 59.9999C50.9821 56.124 54.1242 52.9819 58.0001 52.9819C61.876 52.9819 65.0181 56.124 65.0181 59.9999C65.0181 63.8759 61.876 67.0179 58.0001 67.0179C54.1242 67.0179 50.9821 63.8759 50.9821 59.9999Z" fill="#D7AF82"/>
<path d="M63.614 39.198C61.9641 33.6006 54.0358 33.6007 52.386 39.198L52.0927 40.1931C51.6014 41.86 49.6975 42.6486 48.1715 41.8173L47.2605 41.3211C42.1359 38.5298 36.5298 44.1359 39.3211 49.2605L39.8173 50.1715C40.6486 51.6975 39.86 53.6014 38.1931 54.0927L37.198 54.386C31.6006 56.0359 31.6007 63.9641 37.198 65.614L38.1931 65.9073C39.86 66.3986 40.6486 68.3025 39.8173 69.8285L39.3211 70.7395C36.5298 75.8641 42.1359 81.4702 47.2605 78.6789L48.1715 78.1827C49.6975 77.3514 51.6014 78.14 52.0927 79.8069L52.386 80.8019C54.0358 86.3993 61.9642 86.3993 63.614 80.8019L63.9073 79.8069C64.3986 78.14 66.3025 77.3514 67.8285 78.1827L68.7395 78.6789C73.8641 81.4702 79.4702 75.8641 76.6789 70.7395L76.1827 69.8285C75.3514 68.3025 76.14 66.3986 77.8069 65.9073L78.8019 65.614C84.3993 63.9641 84.3993 56.0358 78.8019 54.386L77.8069 54.0927C76.14 53.6014 75.3514 51.6975 76.1827 50.1715L76.6789 49.2605C79.4702 44.1359 73.8641 38.5298 68.7395 41.3211L67.8285 41.8173C66.3025 42.6486 64.3986 41.86 63.9073 40.1931L63.614 39.198ZM55.3835 40.0816C56.1525 37.4728 59.8475 37.4728 60.6165 40.0816L60.9098 41.0766C61.9639 44.6531 66.049 46.3452 69.3233 44.5616L70.2343 44.0654C72.6227 42.7645 75.2355 45.3773 73.9346 47.7657L73.4384 48.6766C71.6548 51.951 73.3469 56.0361 76.9234 57.0902L77.9184 57.3835C80.5272 58.1525 80.5272 61.8475 77.9184 62.6165L76.9234 62.9098C73.3469 63.9639 71.6548 68.049 73.4384 71.3234L73.9346 72.2343C75.2355 74.6227 72.6227 77.2355 70.2343 75.9346L69.3233 75.4384C66.049 73.6548 61.9639 75.3469 60.9098 78.9234L60.6165 79.9184C59.8475 82.5272 56.1525 82.5272 55.3835 79.9184L55.0902 78.9234C54.0361 75.3469 49.951 73.6548 46.6766 75.4384L45.7657 75.9346C43.3773 77.2355 40.7645 74.6227 42.0654 72.2343L42.5616 71.3234C44.3452 68.049 42.6531 63.9639 39.0766 62.9098L38.0816 62.6165C35.4728 61.8475 35.4728 58.1525 38.0816 57.3835L39.0766 57.0902C42.6531 56.0361 44.3452 51.951 42.5616 48.6767L42.0654 47.7657C40.7645 45.3773 43.3773 42.7645 45.7657 44.0654L46.6766 44.5616C49.951 46.3452 54.0361 44.6531 55.0902 41.0766L55.3835 40.0816Z" fill="#D7AF82"/>
</g>
<defs>
<filter id="filter0_d_184_11311" x="0" y="0" width="263" height="128" filterUnits="userSpaceOnUse" color-interpolation-filters="sRGB">
<feFlood flood-opacity="0" result="BackgroundImageFix"/>
<feColorMatrix in="SourceAlpha" type="matrix" values="0 0 0 0 0 0 0 0 0 0 0 0 0 0 0 0 0 0 127 0" result="hardAlpha"/>
<feOffset dx="4" dy="4"/>
<feGaussianBlur stdDeviation="2"/>
<feComposite in2="hardAlpha" operator="out"/>
<feColorMatrix type="matrix" values="0 0 0 0 0 0 0 0 0 0 0 0 0 0 0 0 0 0 0.1 0"/>
<feBlend mode="normal" in2="BackgroundImageFix" result="effect1_dropShadow_184_11311"/>
<feBlend mode="normal" in="SourceGraphic" in2="effect1_dropShadow_184_11311" result="shape"/>
</filter>
</defs>
</svg>
