<svg width="134" height="110" viewBox="0 0 134 110" fill="none" xmlns="http://www.w3.org/2000/svg">
<path d="M122.5 8.75C127.332 8.75 131.25 12.6675 131.25 17.5V87.5C131.25 92.3325 127.332 96.25 122.5 96.25H100.625C95.1167 96.25 89.93 98.8434 86.625 103.25L70 125.417L53.375 103.25C50.0701 98.8434 44.8833 96.25 39.375 96.25H17.5C12.6675 96.25 8.75 92.3325 8.75 87.5V17.5C8.75 12.6675 12.6675 8.75 17.5 8.75H122.5ZM17.5 0C7.83502 0 0 7.83502 0 17.5V87.5C0 97.165 7.83502 105 17.5 105H39.375C42.1291 105 44.7225 106.297 46.375 108.5L63 130.667C66.5 135.333 73.5 135.333 77 130.667L93.625 108.5C95.2775 106.297 97.8709 105 100.625 105H122.5C132.165 105 140 97.165 140 87.5V17.5C140 7.83502 132.165 0 122.5 0H17.5Z" fill="#93BAF2"/>
<path d="M26.25 30.625C26.25 28.2088 28.2088 26.25 30.625 26.25H109.375C111.791 26.25 113.75 28.2088 113.75 30.625C113.75 33.0412 111.791 35 109.375 35H30.625C28.2088 35 26.25 33.0412 26.25 30.625ZM26.25 52.5C26.25 50.0837 28.2088 48.125 30.625 48.125H109.375C111.791 48.125 113.75 50.0837 113.75 52.5C113.75 54.9162 111.791 56.875 109.375 56.875H30.625C28.2088 56.875 26.25 54.9162 26.25 52.5ZM26.25 74.375C26.25 71.9587 28.2088 70 30.625 70H74.375C76.7912 70 78.75 71.9587 78.75 74.375C78.75 76.7912 76.7912 78.75 74.375 78.75H30.625C28.2088 78.75 26.25 76.7912 26.25 74.375Z" fill="#93BAF2"/>
</svg>
