<svg width="135" height="33" viewBox="0 0 135 33" fill="none" xmlns="http://www.w3.org/2000/svg">
<rect width="135" height="33" fill="#007BFF"/>
<path d="M15.2129 9.73535H30.7168V26.2764H29.3984V25.4326H16.5312V26.2764H15.2129V9.73535ZM29.3984 11.001H16.5312V24.167H29.3984V11.001ZM17.1289 15.3076C18.7344 14.1475 20.0527 12.7822 21.084 11.2119L22.2441 11.7568C22.0273 12.0791 21.793 12.3955 21.541 12.7061H27.7637V13.7432C26.9023 14.7861 25.8037 15.7266 24.4678 16.5645C25.7041 16.9805 27.2188 17.3057 29.0117 17.54C28.7422 18.0674 28.5488 18.5068 28.4316 18.8584C26.3516 18.3838 24.5938 17.8477 23.1582 17.25C21.7227 17.8945 19.8184 18.5244 17.4453 19.1396C17.2812 18.7529 17.082 18.3779 16.8477 18.0146C18.9043 17.5928 20.6035 17.1094 21.9453 16.5645C21.1191 15.9961 20.4072 15.3428 19.8096 14.6045C19.2529 15.1377 18.6465 15.6592 17.9902 16.1689C17.7559 15.9229 17.4688 15.6357 17.1289 15.3076ZM18.3945 22.1104L18.7637 20.8975C21.6934 21.2842 24.5117 21.7354 27.2188 22.251L26.7441 23.5869C24.1543 23.0127 21.3711 22.5205 18.3945 22.1104ZM26.0234 13.7959H20.6006C20.583 13.8193 20.5654 13.8398 20.5479 13.8574C21.2275 14.7305 22.0859 15.4482 23.123 16.0107C24.3359 15.3604 25.3027 14.6221 26.0234 13.7959ZM20.2402 19.7725L20.5918 18.5947C22.3145 18.8525 24.125 19.1455 26.0234 19.4736L25.6543 20.7041C23.7324 20.3174 21.9277 20.0068 20.2402 19.7725ZM32.4922 17.2061H39.1016V13.4619H33.6348V12.1611H39.1016V9.1377H40.5605V12.1611H46.625L46.2998 17.2061H48.7168C48.6934 18.5068 48.6523 19.8486 48.5938 21.2314C48.5234 23.165 47.6094 24.1201 45.8516 24.0967C44.9375 24.1084 43.9531 24.0674 42.8984 23.9736C42.8398 23.4346 42.752 22.9189 42.6348 22.4268C43.7129 22.626 44.7266 22.7256 45.6758 22.7256C46.6484 22.749 47.1582 22.2158 47.2051 21.126C47.2402 20.2939 47.2637 19.4209 47.2754 18.5068H40.5605V26.2764H39.1016V18.5068H32.4922V17.2061ZM45.1309 13.4619H40.5605V17.2061H44.8848L45.1309 13.4619ZM44.6914 10.1572L45.5527 9.17285C46.7949 10.0049 47.9082 10.79 48.8926 11.5283L47.9609 12.6357C47.0469 11.8623 45.957 11.0361 44.6914 10.1572ZM55.168 20.1592H60.6172V17.54H56.1172V16.2393H60.6172V13.6377H55.625V12.3369H61.9619C62.9639 11.0654 63.7285 9.94043 64.2559 8.96191L65.6621 9.82324C65.1113 10.5029 64.4053 11.3408 63.5439 12.3369H67.2617V13.6377H62.0586V16.2393H66.7695V17.54H62.0586V20.1592H67.7188V21.46H62.0586V26.3467H60.6172V21.46H55.168V20.1592ZM56.0117 22.0928C56.0234 22.4795 56.0645 22.9834 56.1348 23.6045C54.4941 24.6357 53.3281 25.4443 52.6367 26.0303L51.8105 24.8525C52.209 24.5244 52.4082 24.0146 52.4082 23.3232V16.3623H50.2812V15.0967H53.7617V23.5869C54.4531 23.1416 55.2031 22.6436 56.0117 22.0928ZM51.916 9.34863C52.959 10.4033 53.8848 11.376 54.6934 12.2666L53.4629 13.3037C52.6191 12.1904 51.7637 11.1826 50.8965 10.2803L51.916 9.34863ZM57.0137 9.78809L58.0684 8.99707C58.8184 9.8291 59.5039 10.6318 60.125 11.4053L58.9121 12.249C58.3145 11.3936 57.6816 10.5732 57.0137 9.78809ZM74.873 10.5264H84.9102V26.1006H83.5391V24.6416H76.2441V26.1357H74.873V10.5264ZM70.5137 19.5791C71.709 19.4033 72.9336 19.21 74.1875 18.999C74.1172 19.4561 74.0645 19.9072 74.0293 20.3525C72.4707 20.5869 70.7598 20.8623 68.8965 21.1787L68.6152 19.8428C69.3945 19.04 70.2939 17.8066 71.3135 16.1426C70.3701 16.2012 69.4707 16.2686 68.6152 16.3447L68.2812 15.1494C69.3594 13.708 70.4785 11.6279 71.6387 8.90918L72.9746 9.43652C71.709 11.9209 70.6719 13.79 69.8633 15.0439C70.502 15.0264 71.2168 15.0059 72.0078 14.9824C72.4004 14.3027 72.8105 13.5615 73.2383 12.7588L74.5391 13.4092C73.4609 15.2607 72.1191 17.3174 70.5137 19.5791ZM80.5508 23.3232H83.5391V18.1201H80.5508V23.3232ZM76.2441 23.3232H79.2148V18.1201H76.2441V23.3232ZM83.5391 11.8447H80.5508V16.8545H83.5391V11.8447ZM76.2441 16.8545H79.2148V11.8447H76.2441V16.8545ZM68.2285 23.7627C70.2324 23.3877 72.2363 22.9717 74.2402 22.5146C74.2051 22.9834 74.1875 23.4287 74.1875 23.8506C72.4883 24.1787 70.6309 24.6006 68.6152 25.1162L68.2285 23.7627ZM92.4688 19.9658H102.471V26.3994H101.117V25.3447H93.8223V26.3994H92.4688V19.9658ZM86.2285 17.5225C87.9512 14.9678 89.2461 12.1436 90.1133 9.0498L91.4844 9.43652C90.9746 11.0127 90.418 12.4658 89.8145 13.7959V26.3994H88.5137V16.3711C87.9746 17.3145 87.4062 18.1787 86.8086 18.9639C86.6211 18.4717 86.4277 17.9912 86.2285 17.5225ZM101.117 21.1611H93.8223V24.1494H101.117V21.1611ZM91.3086 11.4229H97.0479C96.6963 10.8193 96.3301 10.2217 95.9492 9.62988L97.127 9.01465C97.5488 9.64746 97.9648 10.3154 98.375 11.0186L97.6104 11.4229H103.684V12.6533H91.3086V11.4229ZM92.2754 14.2881H102.646V15.4834H92.2754V14.2881ZM92.2754 17.1182H102.646V18.3135H92.2754V17.1182ZM106.566 10.7549H110.864C111.116 10.1279 111.324 9.52441 111.488 8.94434L112.859 9.31348C112.666 9.81152 112.464 10.292 112.253 10.7549H119.258V20.3525H117.904V19.8076H107.92V20.3525H106.566V10.7549ZM108.412 21.0205H109.748V23.6045C109.748 24.3311 110.135 24.6943 110.908 24.6943H114.811C115.748 24.6943 116.293 24.3721 116.445 23.7275C116.562 23.3057 116.68 22.667 116.797 21.8115C117.23 21.9873 117.688 22.1572 118.168 22.3213C118.027 23.1299 117.887 23.7803 117.746 24.2725C117.477 25.3857 116.604 25.9424 115.127 25.9424H110.697C109.174 25.9424 108.412 25.2158 108.412 23.7627V21.0205ZM107.92 16.0107H117.904V14.5342H107.92V16.0107ZM107.92 18.6123H117.904V17.1357H107.92V18.6123ZM117.904 11.9502H107.92V13.4092H117.904V11.9502ZM105.793 20.8447L107.076 21.2842C106.561 22.6904 106.021 23.9736 105.459 25.1338C105.084 24.9697 104.65 24.7998 104.158 24.624C104.732 23.6045 105.277 22.3447 105.793 20.8447ZM118.396 21.4072L119.416 20.6162C120.248 21.5186 121.098 22.5088 121.965 23.5869L120.84 24.4482C120.043 23.3701 119.229 22.3564 118.396 21.4072ZM111.488 20.8271L112.438 20.0186C113.152 20.6748 113.938 21.46 114.793 22.374L113.721 23.2881C112.854 22.2686 112.109 21.4482 111.488 20.8271Z" fill="white"/>
</svg>
