<svg width="26" height="26" viewBox="0 0 26 26" fill="none" xmlns="http://www.w3.org/2000/svg">
<path d="M19.738 0.237976C20.0553 -0.0793253 20.5697 -0.0793253 20.887 0.237976L25.762 5.11298C26.0793 5.43028 26.0793 5.94472 25.762 6.26202L9.51205 22.512C9.43424 22.5898 9.34144 22.651 9.23928 22.6919L1.11428 25.9419C0.812502 26.0626 0.467825 25.9919 0.237999 25.762C0.00817357 25.5322 -0.0625741 25.1875 0.0581364 24.8857L3.30814 16.7607C3.349 16.6586 3.41019 16.5658 3.488 16.488L19.738 0.237976ZM18.2116 4.0625L21.9375 7.78845L24.0385 5.6875L20.3125 1.96155L18.2116 4.0625ZM20.7885 8.9375L17.0625 5.21155L6.50002 15.774V16.25H7.31252C7.76126 16.25 8.12502 16.6138 8.12502 17.0625V17.875H8.93752C9.38626 17.875 9.75002 18.2388 9.75002 18.6875V19.5H10.226L20.7885 8.9375ZM4.92646 17.3476L4.75497 17.5191L2.27101 23.729L8.48092 21.2451L8.65241 21.0736C8.34432 20.9581 8.12502 20.6609 8.12502 20.3125V19.5H7.31252C6.86379 19.5 6.50002 19.1362 6.50002 18.6875V17.875H5.68752C5.33912 17.875 5.04193 17.6557 4.92646 17.3476Z" fill="#A7ADB8"/>
</svg>
