<svg width="134" height="110" viewBox="0 0 134 110" fill="none" xmlns="http://www.w3.org/2000/svg">
<path d="M150 120C150 120 160 120 160 110C160 100 150 70 110 70C70 70 60 100 60 110C60 120 70 120 70 120H150ZM70.2235 110C70.1888 109.996 70.1403 109.99 70.0815 109.98C70.0538 109.975 70.0266 109.97 70.0001 109.965C70.0146 107.325 71.6687 99.6691 77.5926 92.7579C83.1334 86.2936 92.8269 80 110 80C127.173 80 136.867 86.2936 142.407 92.7579C148.331 99.6691 149.985 107.325 150 109.965C149.973 109.97 149.946 109.975 149.919 109.98C149.86 109.99 149.811 109.996 149.777 110H70.2235Z" fill="#27BCFD" fill-opacity="0.5"/>
<path d="M110 50C121.046 50 130 41.0457 130 30C130 18.9543 121.046 10 110 10C98.9543 10 90 18.9543 90 30C90 41.0457 98.9543 50 110 50ZM140 30C140 46.5685 126.569 60 110 60C93.4315 60 80 46.5685 80 30C80 13.4315 93.4315 0 110 0C126.569 0 140 13.4315 140 30Z" fill="#27BCFD" fill-opacity="0.5"/>
<path d="M69.3593 72.7996C65.6813 71.6232 61.5954 70.7679 57.0628 70.3306C54.8195 70.1141 52.4668 70 50 70C10 70 0 100 0 110C0 116.667 3.33333 120 10 120H52.1636C50.7556 117.159 50 113.791 50 110C50 99.8971 53.7724 89.5802 60.8982 80.9619C63.3327 78.0174 66.1587 75.2713 69.3593 72.7996ZM49.2004 80.0046C43.2256 89.1361 40 99.5468 40 110H10C10 107.393 11.6424 99.6997 17.5926 92.7579C23.0468 86.3946 32.5249 80.1967 49.2004 80.0046Z" fill="#27BCFD" fill-opacity="0.5"/>
<path d="M15 35C15 18.4315 28.4315 5 45 5C61.5685 5 75 18.4315 75 35C75 51.5685 61.5685 65 45 65C28.4315 65 15 51.5685 15 35ZM45 15C33.9543 15 25 23.9543 25 35C25 46.0457 33.9543 55 45 55C56.0457 55 65 46.0457 65 35C65 23.9543 56.0457 15 45 15Z" fill="#27BCFD" fill-opacity="0.5"/>
</svg>
